name Walk7.mot
datacolumns 19
datarows 12
range 1.91000000 1.92100000
endheader

                time	   L_ground_force_vx	   L_ground_force_vy	   L_ground_force_vz	   L_ground_force_px	   L_ground_force_py	   L_ground_force_pz	   R_ground_force_vx	   R_ground_force_vy	   R_ground_force_vz	   R_ground_force_px	   R_ground_force_py	   R_ground_force_pz	   L_ground_torque_x	   L_ground_torque_y	   L_ground_torque_z	   R_ground_torque_x	   R_ground_torque_y	   R_ground_torque_z	
          1.91000000	          0.05511454	          0.20200611	         -0.00445239	         -0.00031943	          0.00000000	         -0.00005421	         -7.21571976	        518.20690179	        -26.71494689	          0.16455444	          0.00000000	          0.07223596	          0.00000000	         -0.00033428	          0.00000000	          0.00000000	          1.95670440	          0.00000000	
          1.91100000	          0.05223126	          0.19456848	         -0.00420001	         -0.00033295	          0.00000000	         -0.00005776	         -7.08513393	        518.45636845	        -26.78726699	          0.16505639	          0.00000000	          0.07219974	          0.00000000	         -0.00028719	          0.00000000	          0.00000000	          1.96985478	          0.00000000	
          1.91200000	          0.04939576	          0.18702801	         -0.00395321	         -0.00034406	          0.00000000	         -0.00006079	         -6.95897401	        518.74006912	        -26.86047252	          0.16556174	          0.00000000	          0.07216344	          0.00000000	         -0.00024301	          0.00000000	          0.00000000	          1.98246536	          0.00000000	
          1.91300000	          0.04661470	          0.17942192	         -0.00371246	         -0.00035293	          0.00000000	         -0.00006333	         -6.83719280	        519.05756642	        -26.93446985	          0.16607039	          0.00000000	          0.07212709	          0.00000000	         -0.00020168	          0.00000000	          0.00000000	          1.99453682	          0.00000000	
          1.91400000	          0.04389394	          0.17178453	         -0.00347815	         -0.00035971	          0.00000000	         -0.00006542	         -6.71974735	        519.40838743	        -27.00917041	          0.16658223	          0.00000000	          0.07209072	          0.00000000	         -0.00016309	          0.00000000	          0.00000000	          2.00607142	          0.00000000	
          1.91500000	          0.04123865	          0.16414738	         -0.00325062	         -0.00036456	          0.00000000	         -0.00006708	         -6.60659868	        519.79202627	        -27.08448995	          0.16709717	          0.00000000	          0.07205436	          0.00000000	         -0.00012717	          0.00000000	          0.00000000	          2.01707261	          0.00000000	
          1.91600000	          0.03865329	          0.15653929	         -0.00303015	         -0.00036761	          0.00000000	         -0.00006835	         -6.49771165	        520.20794794	        -27.16034787	          0.16761507	          0.00000000	          0.07201802	          0.00000000	         -0.00009382	          0.00000000	          0.00000000	          2.02754455	          0.00000000	
          1.91700000	          0.03614169	          0.14898655	         -0.00281697	         -0.00036902	          0.00000000	         -0.00006925	         -6.39305492	        520.65559275	        -27.23666667	          0.16813581	          0.00000000	          0.07198172	          0.00000000	         -0.00006296	          0.00000000	          0.00000000	          2.03749175	          0.00000000	
          1.91800000	          0.03370706	          0.14151299	         -0.00261128	         -0.00036891	          0.00000000	         -0.00006982	         -6.29260093	        521.13438097	        -27.31337163	          0.16865927	          0.00000000	          0.07194547	          0.00000000	         -0.00003448	          0.00000000	          0.00000000	          2.04691866	          0.00000000	
          1.91900000	          0.03135207	          0.13414012	         -0.00241321	         -0.00036742	          0.00000000	         -0.00007007	         -6.19632555	        521.64371690	        -27.39039057	          0.16918531	          0.00000000	          0.07190929	          0.00000000	         -0.00000829	          0.00000000	          0.00000000	          2.05582947	          0.00000000	
          1.92000000	          0.02907883	          0.12688723	         -0.00222286	         -0.00036467	          0.00000000	         -0.00007003	         -6.10420744	        522.18299201	        -27.46765382	          0.16971379	          0.00000000	          0.07187317	          0.00000000	          0.00001570	          0.00000000	          0.00000000	          2.06422806	          0.00000000	
          1.92100000	          0.02688900	          0.11977154	         -0.00204029	         -0.00036077	          0.00000000	         -0.00006974	         -6.01622686	        522.75158685	        -27.54509406	          0.17024457	          0.00000000	          0.07183714	          0.00000000	          0.00003759	          0.00000000	          0.00000000	          2.07211790	          0.00000000	
